#!OML:ASF X:\für Bonn\!DataBase\2005_08_12_Daniel\c3d\Daniel.ASF
:FULLY-SPECIFIED
:DEGREES
63
root 16.9242 16.4351 0.558337 -730.562 -67.7187 726.868
lowerback 7.28215 -5.90486 -4.00137
upperback 3.49463 -8.2321 -2.84944
thorax -0.297063 -4.17629 -0.122012
lowerneck 4.55311 0.590299 -1.60421
upperneck 8.04677 0.465953 1.88451
head 1.72875 0.144924 0.854575
rclavicle -4.90004e-014 -4.85035e-014
rhumerus -51.7133 7.22588 -95.5111
rradius 55.5089
rwrist -0.519618
rhand -19.6757 18.2747
rfingers 7.12502
rthumb 6.65288 -11.6008
lclavicle -4.90004e-014 -4.85035e-014
lhumerus -27.8472 3.71135 85.2404
lradius 117.518
lwrist 199.288
lhand -11.0059 15.471
lfingers 7.12502
lthumb 15.0148 44.9066
rfemur -37.7946 -12.8713 10.6501
rtibia 57.4485
rfoot -15.5774 7.24134
rtoes -12.4815
lfemur 6.92346 -14.4693 -27.3596
ltibia 38.643
lfoot -41.9435 10.5645
ltoes -18.2201
64
root 16.8293 16.4242 0.555076 -730.566 -67.9672 726.836
lowerback 7.25691 -6.15128 -3.86362
upperback 3.44775 -8.54775 -2.7599
thorax -0.330129 -4.33109 -0.0847371
lowerneck 4.44559 0.833113 -1.53369
upperneck 8.14408 0.813653 1.47035
head 1.77239 0.312799 0.714115
rclavicle 2.02263e-014 7.95139e-015
rhumerus -51.9812 6.7597 -94.9165
rradius 54.7504
rwrist -0.770007
rhand -20.0002 18.229
rfingers 7.12502
rthumb 6.33966 -11.6561
lclavicle 2.02263e-014 7.95139e-015
lhumerus -27.0678 4.02411 85.0684
lradius 117.717
lwrist 199.435
lhand -10.8584 15.5898
lfingers 7.12502
lthumb 15.1569 45.0148
rfemur -38.195 -12.435 10.4819
rtibia 56.4659
rfoot -15.3733 6.41583
rtoes -12.4526
lfemur 7.60517 -14.4468 -27.3387
ltibia 38.1398
lfoot -42.0515 10.7747
ltoes -18.2522
65
root 16.73 16.4138 0.551428 -730.596 -68.2147 726.843
lowerback 7.20072 -6.40388 -3.74147
upperback 3.41427 -8.87086 -2.67581
thorax -0.330986 -4.49061 -0.049163
lowerneck 4.36483 1.07451 -1.42009
upperneck 8.16718 1.16506 1.01299
head 1.79003 0.483176 0.55308
rclavicle -1.62904e-013 -1.43125e-014
rhumerus -52.2303 6.27055 -94.3168
rradius 53.957
rwrist -0.940808
rhand -20.3388 18.1028
rfingers 7.12502
rthumb 6.01268 -11.7919
lclavicle -1.62904e-013 -1.43125e-014
lhumerus -26.2733 4.31577 84.8477
lradius 117.948
lwrist 199.657
lhand -10.6699 15.7098
lfingers 7.12502
lthumb 15.3385 45.1209
rfemur -38.574 -11.9361 10.263
rtibia 55.4264
rfoot -15.0943 5.57401
rtoes -12.5961
lfemur 8.30269 -14.3624 -27.3017
ltibia 37.5999
lfoot -42.142 10.947
ltoes -18.3309
66
root 16.6243 16.4022 0.547807 -730.69 -68.4479 726.907
lowerback 7.12064 -6.66085 -3.6639
upperback 3.39229 -9.20103 -2.57908
thorax -0.297803 -4.65494 0.018478
lowerneck 4.27272 1.33215 -1.35431
upperneck 8.17738 1.53673 0.567982
head 1.80755 0.662318 0.404796
rclavicle -5.6107e-014 -3.18055e-015
rhumerus -52.4624 5.76939 -93.6627
rradius 53.099
rwrist -0.936391
rhand -20.7261 17.852
rfingers 7.12502
rthumb 5.63881 -12.053
lclavicle -5.6107e-014 -3.18055e-015
lhumerus -25.441 4.59203 84.5997
lradius 118.18
lwrist 199.894
lhand -10.387 15.7774
lfingers 7.12502
lthumb 15.611 45.1675
rfemur -38.8994 -11.378 9.97274
rtibia 54.3151
rfoot -14.7213 4.70009
rtoes -12.6091
lfemur 9.04782 -14.2488 -27.2661
ltibia 37.0248
lfoot -42.2349 11.0579
ltoes -18.41
67
root 16.5138 16.3891 0.543997 -730.818 -68.6811 727.008
lowerback 7.02138 -6.92042 -3.59322
upperback 3.3648 -9.53475 -2.49161
thorax -0.259841 -4.8211 0.0776558
lowerneck 4.23582 1.59153 -1.27799
upperneck 8.15312 1.90928 0.129261
head 1.80705 0.842011 0.256635
rclavicle 9.44227e-016 1.11319e-014
rhumerus -52.7106 5.27351 -93.035
rradius 52.1994
rwrist -0.878792
rhand -21.2462 17.426
rfingers 7.12502
rthumb 5.13666 -12.4917
lclavicle 9.44227e-016 1.11319e-014
lhumerus -24.6324 4.8523 84.3069
lradius 118.459
lwrist 200.176
lhand -10.0211 15.7848
lfingers 7.12502
lthumb 15.9634 45.147
rfemur -39.1871 -10.7554 9.62939
rtibia 53.1375
rfoot -14.3244 3.77382
rtoes -12.4902
lfemur 9.82376 -14.1115 -27.232
ltibia 36.4195
lfoot -42.3059 11.1337
ltoes -18.3846
68
root 16.4019 16.3738 0.539842 -730.998 -68.8885 727.173
lowerback 6.93304 -7.19453 -3.54492
upperback 3.33414 -9.89015 -2.40549
thorax -0.226743 -4.99823 0.149149
lowerneck 4.17269 1.86136 -1.23413
upperneck 8.14289 2.29373 -0.287769
head 1.81747 1.02671 0.121436
rclavicle -3.40419e-014 -2.74323e-014
rhumerus -52.9429 4.78139 -92.3895
rradius 51.2408
rwrist -0.670178
rhand -21.9136 16.8446
rfingers 7.12502
rthumb 4.49222 -13.0878
lclavicle -3.40419e-014 -2.74323e-014
lhumerus -23.8061 5.1316 83.9915
lradius 118.745
lwrist 200.429
lhand -9.60306 15.8122
lfingers 7.12502
lthumb 16.3659 45.1417
rfemur -39.4319 -10.0828 9.20469
rtibia 51.8933
rfoot -13.9328 2.82462
rtoes -12.2899
lfemur 10.5953 -13.9861 -27.2207
ltibia 35.8047
lfoot -42.356 11.2062
ltoes -18.4668
69
root 16.2878 16.3558 0.535405 -731.255 -69.0955 727.413
lowerback 6.85162 -7.46116 -3.5216
upperback 3.31023 -10.2378 -2.32201
thorax -0.186224 -5.17205 0.229816
lowerneck 4.16239 2.12999 -1.18383
upperneck 8.05521 2.67611 -0.708555
head 1.79637 1.21155 -0.016729
rclavicle 7.2457e-014 1.98785e-015
rhumerus -53.0983 4.16046 -91.6819
rradius 50.152
rwrist -0.253184
rhand -22.7678 16.1016
rfingers 7.12502
rthumb 3.66735 -13.8466
lclavicle 7.2457e-014 1.98785e-015
lhumerus -23.0004 5.38011 83.6695
lradius 119.128
lwrist 200.611
lhand -9.05152 15.733
lfingers 7.12502
lthumb 16.8968 45.018
rfemur -39.6362 -9.34553 8.69576
rtibia 50.5938
rfoot -13.5744 1.854
rtoes -12.1577
lfemur 11.3805 -13.8411 -27.2322
ltibia 35.1959
lfoot -42.3841 11.2858
ltoes -18.5241
70
root 16.1728 16.3346 0.530175 -731.637 -69.2679 727.785
lowerback 6.80497 -7.73645 -3.53283
upperback 3.27173 -10.6019 -2.26815
thorax -0.177984 -5.35365 0.305246
lowerneck 4.1765 2.4028 -1.07547
upperneck 7.93935 3.06459 -1.13743
head 1.76556 1.4015 -0.167286
rclavicle 1.89839e-014 -1.31198e-014
rhumerus -53.2234 3.36139 -90.8986
rradius 48.917
rwrist 0.44151
rhand -23.7251 15.2989
rfingers 7.12502
rthumb 2.74285 -14.6633
lclavicle 1.89839e-014 -1.31198e-014
lhumerus -22.2524 5.64702 83.3254
lradius 119.563
lwrist 200.781
lhand -8.52463 15.646
lfingers 7.12502
lthumb 17.404 44.8869
rfemur -39.8122 -8.54154 8.06109
rtibia 49.2439
rfoot -13.2658 0.879645
rtoes -12.0741
lfemur 12.1589 -13.7193 -27.2942
ltibia 34.6065
lfoot -42.4266 11.3204
ltoes -18.5777
71
root 16.0551 16.3102 0.525124 -732.146 -69.4158 728.302
lowerback 6.74346 -8.01049 -3.59965
upperback 3.2405 -10.9669 -2.21444
thorax -0.14282 -5.5369 0.40505
lowerneck 4.16855 2.67004 -0.962306
upperneck 7.82169 3.44595 -1.5751
head 1.741 1.58816 -0.321088
rclavicle 1.39746e-013 -1.27222e-014
rhumerus -53.2683 2.41961 -89.9907
rradius 47.5336
rwrist 1.39597
rhand -24.7653 14.4029
rfingers 7.12502
rthumb 1.73822 -15.5698
lclavicle 1.39746e-013 -1.27222e-014
lhumerus -21.5151 5.95142 83.0235
lradius 120.055
lwrist 200.825
lhand -7.96983 15.5526
lfingers 7.12502
lthumb 17.9379 44.7454
rfemur -39.9655 -7.67337 7.29946
rtibia 47.8673
rfoot -13.1154 -0.0989425
rtoes -12.1181
lfemur 12.9224 -13.5953 -27.406
ltibia 34.0318
lfoot -42.454 11.3471
ltoes -18.5883
72
root 15.9356 16.2822 0.518773 -732.698 -69.5557 728.855
lowerback 6.7157 -8.27951 -3.67905
upperback 3.19975 -11.328 -2.16289
thorax -0.132612 -5.71773 0.513988
lowerneck 4.21676 2.93633 -0.82953
upperneck 7.66596 3.82392 -2.01791
head 1.69799 1.77453 -0.480875
rclavicle 8.32411e-014 -3.53837e-014
rhumerus -53.3304 1.41958 -89.0129
rradius 46.0671
rwrist 2.47546
rhand -25.8141 13.4664
rfingers 7.12502
rthumb 0.725319 -16.5121
lclavicle 8.32411e-014 -3.53837e-014
lhumerus -20.8186 6.29628 82.7366
lradius 120.56
lwrist 200.85
lhand -7.45721 15.5502
lfingers 7.12502
lthumb 18.431 44.697
rfemur -40.0857 -6.74468 6.47363
rtibia 46.4888
rfoot -13.1719 -1.07049
rtoes -12.4679
lfemur 13.7056 -13.4795 -27.528
ltibia 33.4597
lfoot -42.4912 11.3635
ltoes -18.6504
73
root 15.8142 16.2521 0.511604 -733.381 -69.6533 729.536
lowerback 6.66953 -8.55688 -3.82331
upperback 3.2051 -11.7028 -2.12681
thorax -0.05276 -5.90828 0.631894
lowerneck 4.2118 3.19687 -0.642268
upperneck 7.47587 4.19778 -2.48093
head 1.6577 1.96131 -0.655761
rclavicle -7.05934e-014 -6.75868e-015
rhumerus -53.307 0.391394 -87.9882
rradius 44.5386
rwrist 3.671
rhand -26.7439 12.4716
rfingers 7.12502
rthumb -0.172714 -17.5081
lclavicle -7.05934e-014 -6.75868e-015
lhumerus -20.0576 6.69659 82.4809
lradius 121.078
lwrist 200.771
lhand -6.9526 15.5777
lfingers 7.12502
lthumb 18.9164 44.6779
rfemur -40.1654 -5.78558 5.54845
rtibia 45.1461
rfoot -13.5086 -2.02434
rtoes -13.2992
lfemur 14.5085 -13.3648 -27.6924
ltibia 32.8652
lfoot -42.4968 11.3808
ltoes -18.7468
74
root 15.6899 16.2222 0.504432 -734.114 -69.7241 730.25
lowerback 6.68306 -8.82904 -3.96836
upperback 3.17153 -12.0747 -2.10121
thorax -0.0458017 -6.09531 0.752377
lowerneck 4.26933 3.4539 -0.408835
upperneck 7.29278 4.56509 -2.95291
head 1.6136 2.14607 -0.842774
rclavicle -2.04748e-014 6.36111e-015
rhumerus -53.4467 -0.573455 -86.9482
rradius 43.1374
rwrist 4.87789
rhand -27.4084 11.3521
rfingers 7.12502
rthumb -0.814546 -18.6261
lclavicle -2.04748e-014 6.36111e-015
lhumerus -19.3948 7.15405 82.2807
lradius 121.559
lwrist 200.677
lhand -6.55403 15.7611
lfingers 7.12502
lthumb 19.2997 44.8235
rfemur -40.1961 -4.78891 4.56024
rtibia 43.8563
rfoot -14.0155 -2.93964
rtoes -14.5409
lfemur 15.3581 -13.2542 -27.8673
ltibia 32.2305
lfoot -42.456 11.3687
ltoes -18.8262
75
root 15.5633 16.1932 0.496627 -734.96 -69.779 731.065
lowerback 6.73321 -9.09365 -4.13355
upperback 3.13268 -12.4405 -2.09301
thorax -0.0620261 -6.27887 0.871594
lowerneck 4.37296 3.70349 -0.200144
upperneck 7.03631 4.91711 -3.38605
head 1.53934 2.32572 -1.01574
rclavicle -1.20762e-013 1.39149e-015
rhumerus -53.6986 -1.36768 -85.9779
rradius 41.9445
rwrist 5.96098
rhand -27.7431 10.0594
rfingers 7.12502
rthumb -1.13783 -19.9173
lclavicle -1.20762e-013 1.39149e-015
lhumerus -18.676 7.67294 82.1568
lradius 121.981
lwrist 200.528
lhand -6.27169 16.0414
lfingers 7.12502
lthumb 19.5712 45.0764
rfemur -40.2075 -3.73002 3.48998
rtibia 42.6225
rfoot -14.7688 -3.91456
rtoes -15.3633
lfemur 16.2491 -13.1469 -28.0789
ltibia 31.5553
lfoot -42.378 11.3428
ltoes -18.8857
